<?xml version="1.0" encoding="UTF-8" standalone="no"?>
<svg
   xmlns:dc="http://purl.org/dc/elements/1.1/"
   xmlns:cc="http://creativecommons.org/ns#"
   xmlns:rdf="http://www.w3.org/1999/02/22-rdf-syntax-ns#"
   xmlns:svg="http://www.w3.org/2000/svg"
   xmlns="http://www.w3.org/2000/svg"
   xmlns:sodipodi="http://sodipodi.sourceforge.net/DTD/sodipodi-0.dtd"
   xmlns:inkscape="http://www.inkscape.org/namespaces/inkscape"
   version="1.1"
   x="0px"
   y="0px"
   width="30px"
   height="30px"
   viewBox="0 0 30 30"
   enable-background="new 0 0 30 30"
   xml:space="preserve"
   id="svg2"
   inkscape:version="0.48.2 r9819"
   sodipodi:docname="close-btn.svg"><metadata
   id="metadata14"><rdf:RDF><cc:Work
       rdf:about=""><dc:format>image/svg+xml</dc:format><dc:type
         rdf:resource="http://purl.org/dc/dcmitype/StillImage" /></cc:Work></rdf:RDF></metadata><defs
   id="defs12" /><sodipodi:namedview
   pagecolor="#ffffff"
   bordercolor="#666666"
   borderopacity="1"
   objecttolerance="10"
   gridtolerance="10"
   guidetolerance="10"
   inkscape:pageopacity="0"
   inkscape:pageshadow="2"
   inkscape:window-width="1920"
   inkscape:window-height="1009"
   id="namedview10"
   showgrid="false"
   inkscape:zoom="7.8666667"
   inkscape:cx="-26.440678"
   inkscape:cy="15"
   inkscape:window-x="-4"
   inkscape:window-y="-4"
   inkscape:window-maximized="1"
   inkscape:current-layer="svg2" />
<path
   fill="#FFFFFF"
   d="M15,2c7.168,0,13,5.832,13,13c0,7.168-5.832,13-13,13C7.832,28,2,22.168,2,15C2,7.832,7.832,2,15,2 M15,0 C6.715,0,0,6.716,0,15c0,8.285,6.715,15,15,15c8.284,0,15-6.715,15-15C30,6.716,23.284,0,15,0L15,0z"
   id="path4"
   style="fill:#b0291b;fill-opacity:1" />
<line
   fill="none"
   stroke="#FFFFFF"
   stroke-width="3"
   stroke-linecap="round"
   stroke-linejoin="round"
   stroke-miterlimit="10"
   x1="9"
   y1="9"
   x2="21"
   y2="21"
   id="line6"
   style="stroke:#b0291b;stroke-opacity:1;fill:#b0291b;fill-opacity:1" />
<line
   fill="none"
   stroke="#FFFFFF"
   stroke-width="3"
   stroke-linecap="round"
   stroke-linejoin="round"
   stroke-miterlimit="10"
   x1="21"
   y1="9"
   x2="9"
   y2="21"
   id="line8"
   style="stroke:#b0291b;stroke-opacity:1" />
</svg>